<svg width="20" height="20" viewBox="0 0 20 20" fill="none" xmlns="http://www.w3.org/2000/svg">
  <path d="M6 2h5l5 5v9a2 2 0 0 1-2 2H6a2 2 0 0 1-2-2V4a2 2 0 0 1 2-2Z" stroke="#555555" stroke-width="1.5" fill="none"/>
  <path d="M11 2v4a1 1 0 0 0 1 1h4" stroke="#555555" stroke-width="1.5"/>
  <path d="M9 7h6M9 10h6M9 13h6" stroke="#555555" stroke-width="1.5" stroke-linecap="round"/>
  <circle cx="7" cy="7" r="0.75" fill="#555555"/>
  <circle cx="7" cy="10" r="0.75" fill="#555555"/>
  <circle cx="7" cy="13" r="0.75" fill="#555555"/>
</svg>



