<svg width="20" height="20" viewBox="0 0 20 20" fill="none" xmlns="http://www.w3.org/2000/svg">
	<path d="M6 2h5l5 5v9a2 2 0 0 1-2 2H6a2 2 0 0 1-2-2V4a2 2 0 0 1 2-2Z" stroke="#33B469" stroke-width="1.5" fill="none"/>
	<path d="M11 2v4a1 1 0 0 0 1 1h4" stroke="#33B469" stroke-width="1.5"/>
	<circle cx="10" cy="12" r="1.8" stroke="#33B469" stroke-width="1" fill="none"/>
	<circle cx="10" cy="12" r="0.4" fill="#33B469"/>
	<rect x="9.4" y="9.2" width="1.2" height="0.8" fill="#33B469"/>
	<rect x="9.4" y="14" width="1.2" height="0.8" fill="#33B469"/>
	<rect x="7.2" y="11.4" width="0.8" height="1.2" fill="#33B469"/>
	<rect x="12" y="11.4" width="0.8" height="1.2" fill="#33B469"/>
	<rect x="8.1" y="10.1" width="0.8" height="0.8" fill="#33B469" transform="rotate(45 8.5 10.5)"/>
	<rect x="11.1" y="10.1" width="0.8" height="0.8" fill="#33B469" transform="rotate(-45 11.5 10.5)"/>
	<rect x="8.1" y="13.1" width="0.8" height="0.8" fill="#33B469" transform="rotate(-45 8.5 13.5)"/>
	<rect x="11.1" y="13.1" width="0.8" height="0.8" fill="#33B469" transform="rotate(45 11.5 13.5)"/>
</svg>