<svg width="20" height="20" viewBox="0 0 20 20" fill="none" xmlns="http://www.w3.org/2000/svg">
	<path d="M6 2h5l5 5v9a2 2 0 0 1-2 2H6a2 2 0 0 1-2-2V4a2 2 0 0 1 2-2Z" stroke="#33B469" stroke-width="1.5" fill="none"/>
	<path d="M11 2v4a1 1 0 0 0 1 1h4" stroke="#33B469" stroke-width="1.5"/>
	<ellipse cx="8.5" cy="14.5" rx="1.2" ry="0.9" fill="#33B469" transform="rotate(-20 8.5 14.5)"/>
	<path d="M9.5 14V8.5" stroke="#33B469" stroke-width="1.5" stroke-linecap="round"/>
	<path d="M9.5 8.5C9.5 8.5 11.5 8 13 9C13.5 9.3 13.5 10.5 12.5 10.5C11.5 10.5 10.5 10 9.5 10.5" stroke="#33B469" stroke-width="1.2" stroke-linecap="round" stroke-linejoin="round" fill="none"/>
</svg>