<svg width="20" height="20" viewBox="0 0 20 20" fill="none" xmlns="http://www.w3.org/2000/svg">
	<path d="M6 2h5l5 5v9a2 2 0 0 1-2 2H6a2 2 0 0 1-2-2V4a2 2 0 0 1 2-2Z" stroke="#33B469" stroke-width="1.5" fill="none"/>
	<path d="M11 2v4a1 1 0 0 0 1 1h4" stroke="#33B469" stroke-width="1.5"/>
	<path d="M7 15 L8.5 13.5 L10 12 L11.5 10.5" stroke="#33B469" stroke-width="1.2" fill="none" stroke-linecap="round"/>
	<circle cx="12" cy="10" r="0.8" fill="#33B469"/>
	<path d="M7 15 L8 14 L9 15 L7 15" fill="#33B469"/>
	<circle cx="10" cy="9" r="0.4" fill="#33B469"/>
	<circle cx="11.5" cy="8.5" r="0.4" fill="#33B469" opacity="0.6"/>
	<circle cx="13" cy="8" r="0.4" fill="#33B469" opacity="0.3"/>
</svg>