<svg width="20" height="20" viewBox="0 0 20 20" fill="none" xmlns="http://www.w3.org/2000/svg">
	<path d="M6 2h5l5 5v9a2 2 0 0 1-2 2H6a2 2 0 0 1-2-2V4a2 2 0 0 1 2-2Z" stroke="#E5E7EB" stroke-width="1.5" fill="none"/>
	<path d="M11 2v4a1 1 0 0 0 1 1h4" stroke="#E5E7EB" stroke-width="1.5"/>
	<rect x="9" y="6" width="2" height="2" rx="1" fill="#E5E7EB"/>
	<rect x="9" y="9" width="2" height="1" rx="0.5" fill="#E5E7EB"/>
	<rect x="9" y="11" width="2" height="1" rx="0.5" fill="#E5E7EB"/>
	<rect x="9" y="13" width="2" height="1" rx="0.5" fill="#E5E7EB"/>
	<rect x="9" y="15" width="2" height="1" rx="0.5" fill="#E5E7EB"/>
</svg>



