<svg xmlns="http://www.w3.org/2000/svg" width="16" height="16" viewBox="0 0 16 16" fill="none">
  <path d="M8 0.666687C4.042 0.666687 0.833374 3.87531 0.833374 7.83335C0.833374 11.7914 4.042 15 8 15C11.958 15 15.1667 11.7914 15.1667 7.83335C15.1667 3.87531 11.958 0.666687 8 0.666687ZM10.8284 10.1619C11.0237 10.3572 11.0237 10.6738 10.8284 10.8691C10.7336 10.9639 10.606 11.0167 10.4749 11.0167C10.3438 11.0167 10.2162 10.9639 10.1214 10.8691L8 8.74774L5.87866 10.8691C5.78385 10.9639 5.65621 11.0167 5.52512 11.0167C5.39403 11.0167 5.26639 10.9639 5.17158 10.8691C4.9763 10.6738 4.9763 10.3572 5.17158 10.1619L7.29292 8.04052L5.17158 5.91918C4.9763 5.7239 4.9763 5.40734 5.17158 5.21206C5.36686 5.01678 5.68342 5.01678 5.8787 5.21206L8 7.3334L10.1213 5.21206C10.3166 5.01678 10.6331 5.01678 10.8284 5.21206C11.0237 5.40734 11.0237 5.7239 10.8284 5.91918L8.70708 8.04052L10.8284 10.1619Z" fill="#33B469"/>
</svg>


